<svg width="24" height="24" viewBox="0 0 255 257" fill="none" xmlns="http://www.w3.org/2000/svg">
<g clip-path="url(#clip0_1381_5725)">
<path d="M177.57 167.724L156.384 179.792C148.171 183.418 139.354 185.49 130.384 185.904C85.3168 188.149 42.9702 150.733 35.9838 102.503C31.3905 70.7695 43.2061 42.1807 64.6467 25.6601L64.6178 25.612L89.2939 10.5242L89.3421 10.606C64.1074 26.1506 49.5906 57.0568 54.6028 91.6463C61.5892 139.881 103.936 177.293 149.003 175.047C158.928 174.592 168.652 172.099 177.57 167.724Z" fill="#EFEFEF"/>
<path d="M218.063 83.5061C222.974 117.413 209.122 147.78 184.807 163.604L177.584 167.72C168.667 172.095 158.943 174.588 149.018 175.042C103.951 177.287 61.6041 139.876 54.6177 91.6411C49.6055 57.0521 64.1223 26.1457 89.357 10.6012C99.7207 4.2517 111.531 0.636665 123.677 0.0956021C168.73 -2.14496 211.076 35.2715 218.063 83.5061ZM188.177 125.894L181.499 79.7748L137.169 81.9822L138.478 91.0065L159.601 89.9539C158.85 101.099 154.815 112.408 141.67 113.061C127.12 113.787 115.771 100.719 113.373 84.1794C110.976 67.6394 118.405 53.6335 132.96 52.9268C146.572 52.2488 153.731 62.4948 155.214 69.4906L177.276 68.3895C174.994 55.8885 161.474 34.3435 130.957 35.8629C101.385 37.3342 89.0152 59.6581 92.8622 86.2277C96.5648 111.792 113.629 131.645 137.563 130.462C161.498 129.279 164.637 108.412 164.527 97.8146L168.739 126.889L188.177 125.894Z" fill="#EFEFEF"/>
<ellipse cx="135.667" cy="92.278" rx="71.488" ry="57.2634" fill="#EFEFEF"/>
<path d="M177.569 167.724L184.792 163.609C182.469 165.124 180.058 166.498 177.569 167.724Z" fill="#EFEFEF"/>
<path d="M184.807 163.604C209.122 147.781 222.974 117.413 218.063 83.5062C211.076 35.2716 168.73 -2.1449 123.663 0.100473" stroke="black" stroke-width="2" stroke-miterlimit="10"/>
<path d="M123.663 0.100342C111.516 0.641412 99.7059 4.25645 89.3422 10.606C64.1075 26.1505 49.5907 57.0568 54.603 91.6463C61.5893 139.881 103.936 177.293 149.003 175.047C158.928 174.592 168.653 172.1 177.57 167.724C180.057 166.498 182.469 165.124 184.792 163.609" stroke="black" stroke-width="2" stroke-miterlimit="10"/>
<path d="M64.3967 25.7467L64.6133 25.6121L89.2895 10.5243L92.8092 8.37036" stroke="black" stroke-width="2" stroke-miterlimit="10"/>
<path d="M64.6467 25.6601C43.2061 42.1807 31.3905 70.7936 35.9838 102.503C42.9702 150.733 85.3169 188.149 130.384 185.904C139.354 185.49 148.171 183.418 156.384 179.793L177.57 167.724L184.792 163.608L185.273 163.33" stroke="black" stroke-width="2" stroke-miterlimit="10"/>
<path d="M111.601 121.475C105.427 121.949 100.122 121.005 95.6856 118.644C91.2446 116.225 87.8172 112.779 85.4034 108.307C83.0469 103.83 81.7941 98.7514 81.645 93.0701C81.5178 89.1697 82.0216 85.2496 83.1565 81.3097C84.2913 77.3699 86.0549 73.7555 88.4473 70.4665C90.8924 67.116 93.9597 64.379 97.6492 62.2554C101.334 60.0747 105.664 58.7932 110.637 58.4111C112.123 58.2968 113.851 58.3366 115.821 58.5302C117.787 58.6667 119.766 58.9747 121.757 59.4541C123.749 59.9336 125.495 60.5757 126.994 61.3806L126.718 57.7792L133.32 57.2718L133.826 77.33L128.167 77.7649C127.578 74.59 126.516 71.9977 124.982 69.988C123.448 67.9784 121.552 66.5139 119.297 65.5947C117.098 64.6711 114.655 64.3125 111.969 64.519C108.996 64.7474 106.391 65.6376 104.152 67.1897C101.971 68.7373 100.168 70.7159 98.7433 73.1255C97.3755 75.5307 96.3463 78.2262 95.6557 81.2118C95.0222 84.1931 94.7384 87.2338 94.8041 90.3339C94.9532 95.2676 95.7465 99.6056 97.1841 103.348C98.6789 107.086 100.798 109.97 103.542 112.002C106.338 113.972 109.68 114.808 113.567 114.509C114.654 114.426 115.962 114.239 117.492 113.949C119.022 113.659 120.517 113.285 121.977 112.828C123.494 112.367 124.776 111.837 125.823 111.239L125.639 103.231C125.635 101.679 125.635 100.184 125.639 98.7462C125.644 97.3083 125.675 96.2134 125.732 95.4615C124.822 95.5889 123.683 95.7339 122.315 95.8965C120.943 96.0019 119.945 96.1074 119.321 96.2129L119.156 89.584L141.708 87.8511L141.885 93.5302C140.918 93.662 140.069 93.8423 139.339 94.0709C138.666 94.2951 138.093 94.6842 137.618 95.2382C137.138 95.735 136.793 96.4803 136.582 97.4741C136.428 98.4635 136.357 99.7915 136.371 101.458L136.739 115.23L134.595 115.395C133.109 115.509 131.609 115.826 130.097 116.344C128.637 116.802 127.098 117.351 125.479 117.993C123.58 118.714 121.506 119.42 119.259 120.11C117.012 120.8 114.46 121.255 111.601 121.475ZM170.664 55.0061C175.691 54.5624 180.057 54.8881 183.764 55.9834C187.528 57.0742 190.434 58.9784 192.483 61.6961C194.589 64.4094 195.618 68.068 195.569 72.672C195.573 74.9717 195.089 77.2803 194.117 79.5975C193.198 81.8533 191.751 83.977 189.777 85.9688C187.855 87.8991 185.395 89.5544 182.396 90.9349C179.454 92.311 175.958 93.2122 171.908 93.6384C170.655 93.7922 169.542 93.9064 168.57 93.9811C167.656 94.0514 166.71 94.0953 165.734 94.1128L165.885 101.691C165.951 103.296 165.953 104.82 165.891 106.262C165.887 107.7 165.856 108.795 165.799 109.547C166.423 109.442 167.221 109.352 168.193 109.277C169.16 109.145 170.102 109.044 171.016 108.974C171.926 108.846 172.582 108.767 172.982 108.736L173.232 115.359L147.936 117.302L147.845 111.617C149.098 111.463 150.171 111.208 151.063 110.852C151.956 110.496 152.62 109.784 153.056 108.715C153.548 107.642 153.764 105.958 153.702 103.663L152.894 70.6897C152.89 69.1374 152.89 67.6424 152.894 66.2045C152.956 64.7622 153.015 63.665 153.073 62.9131C152.162 63.0406 151.023 63.1856 149.656 63.3482C148.284 63.4536 147.286 63.559 146.661 63.6645L146.497 57.0356C150.551 56.6666 154.579 56.3283 158.581 56.0209C162.639 55.709 166.667 55.3707 170.664 55.0061ZM170.697 61.0413C169.496 61.1336 168.45 61.3578 167.557 61.7139C166.722 62.0656 166.084 62.7471 165.644 63.7584C165.204 64.7698 165.004 66.2802 165.044 68.2898L165.583 87.6554C166.216 87.6642 166.849 87.6731 167.482 87.6819C168.116 87.6908 168.775 87.6688 169.461 87.6161C172.605 87.3745 175.138 86.6624 177.06 85.4797C179.034 84.2354 180.459 82.5734 181.334 80.4935C182.205 78.3565 182.614 75.8237 182.562 72.8951C182.457 70.0281 181.995 67.7635 181.177 66.1013C180.36 64.439 179.32 63.2539 178.058 62.5458C176.849 61.7762 175.578 61.3276 174.245 61.1999C172.966 61.0107 171.783 60.9579 170.697 61.0413Z" fill="black"/>
<path d="M95.6856 118.644L95.2073 119.522L95.2157 119.526L95.6856 118.644ZM85.4034 108.307L84.5185 108.773L84.5234 108.782L85.4034 108.307ZM81.645 93.0701L82.6447 93.0439L82.6445 93.0375L81.645 93.0701ZM83.1565 81.3097L84.1174 81.5865L84.1174 81.5865L83.1565 81.3097ZM88.4473 70.4665L87.6395 69.877L87.6386 69.8783L88.4473 70.4665ZM97.6492 62.2554L98.1481 63.1221L98.1585 63.116L97.6492 62.2554ZM115.821 58.5302L115.723 59.5254L115.738 59.5268L115.752 59.5278L115.821 58.5302ZM121.757 59.4541L121.523 60.4264L121.523 60.4264L121.757 59.4541ZM126.994 61.3806L126.522 62.2617L128.132 63.1258L127.992 61.3039L126.994 61.3806ZM126.718 57.7792L126.641 56.7821L125.644 56.8587L125.721 57.8558L126.718 57.7792ZM133.32 57.2718L134.32 57.2466L134.293 56.1941L133.244 56.2748L133.32 57.2718ZM133.826 77.33L133.903 78.3271L134.85 78.2543L134.826 77.3048L133.826 77.33ZM128.167 77.7649L127.184 77.9473L127.348 78.8308L128.244 78.7619L128.167 77.7649ZM119.297 65.5947L118.909 66.5167L118.919 66.5208L119.297 65.5947ZM104.152 67.1897L103.583 66.3678L103.574 66.3741L104.152 67.1897ZM98.7433 73.1255L97.8825 72.6165L97.8782 72.6238L97.874 72.6312L98.7433 73.1255ZM95.6557 81.2118L94.6814 80.9865L94.6794 80.9952L94.6775 81.004L95.6557 81.2118ZM94.8041 90.3339L93.8043 90.3551L93.8045 90.3641L94.8041 90.3339ZM97.1841 103.348L96.2505 103.706L96.2556 103.719L97.1841 103.348ZM103.542 112.002L102.947 112.806L102.956 112.813L102.966 112.82L103.542 112.002ZM117.492 113.949L117.678 114.932L117.678 114.932L117.492 113.949ZM121.977 112.828L121.686 111.871L121.678 111.874L121.977 112.828ZM125.823 111.239L126.319 112.107L126.836 111.812L126.823 111.216L125.823 111.239ZM125.639 103.231L124.639 103.234L124.639 103.244L124.639 103.254L125.639 103.231ZM125.639 98.7462L124.639 98.7431L125.639 98.7462ZM125.732 95.4615L126.729 95.5374L126.823 94.2989L125.593 94.4711L125.732 95.4615ZM122.315 95.8965L122.392 96.8936L122.412 96.892L122.433 96.8895L122.315 95.8965ZM119.321 96.2129L118.321 96.2377L118.349 97.3911L119.487 97.1989L119.321 96.2129ZM119.156 89.584L119.08 88.5869L118.133 88.6597L118.157 89.6088L119.156 89.584ZM141.708 87.8511L142.707 87.8199L142.675 86.7739L141.631 86.8541L141.708 87.8511ZM141.885 93.5302L142.02 94.521L142.913 94.3994L142.885 93.4989L141.885 93.5302ZM139.339 94.0709L139.04 93.1166L139.032 93.1193L139.023 93.1221L139.339 94.0709ZM137.618 95.2382L138.337 95.9325L138.358 95.9114L138.377 95.889L137.618 95.2382ZM136.582 97.4741L135.604 97.2663L135.598 97.2932L135.594 97.3203L136.582 97.4741ZM136.371 101.458L135.371 101.466L135.371 101.475L135.371 101.485L136.371 101.458ZM136.739 115.23L136.815 116.227L137.764 116.154L137.738 115.204L136.739 115.23ZM130.097 116.344L130.395 117.299L130.408 117.295L130.421 117.29L130.097 116.344ZM125.479 117.993L125.834 118.928L125.841 118.925L125.848 118.923L125.479 117.993ZM119.259 120.11L119.553 121.066L119.553 121.066L119.259 120.11ZM111.525 120.477C105.496 120.941 100.389 120.015 96.1555 117.761L95.2157 119.526C99.8551 121.996 105.359 122.957 111.678 122.472L111.525 120.477ZM96.1639 117.765C91.8939 115.44 88.6056 112.135 86.2834 107.832L84.5234 108.782C87.0287 113.424 90.5952 117.01 95.2073 119.522L96.1639 117.765ZM86.2883 107.841C84.0116 103.516 82.7902 98.5909 82.6447 93.0439L80.6454 93.0963C80.7979 98.9119 82.0821 104.144 84.5186 108.773L86.2883 107.841ZM82.6445 93.0375C82.5209 89.2468 83.01 85.431 84.1174 81.5865L82.1955 81.033C81.0332 85.0682 80.5148 89.0926 80.6456 93.1027L82.6445 93.0375ZM84.1174 81.5865C85.2203 77.7576 86.9326 74.2488 89.256 71.0548L87.6386 69.8783C85.1771 73.2622 83.3623 76.9821 82.1955 81.033L84.1174 81.5865ZM89.255 71.056C91.6155 67.8215 94.5765 65.1778 98.1481 63.1221L97.1504 61.3887C93.3429 63.5802 90.1693 66.4105 87.6395 69.877L89.255 71.056ZM98.1585 63.116C101.692 61.0252 105.868 59.7805 110.713 59.4081L110.56 57.414C105.459 57.806 100.977 59.1241 97.1399 61.3948L98.1585 63.116ZM110.713 59.4081C112.126 59.2995 113.794 59.3357 115.723 59.5254L115.919 57.535C113.909 57.3374 112.12 57.2941 110.56 57.414L110.713 59.4081ZM115.752 59.5278C117.66 59.6603 119.583 59.9594 121.523 60.4264L121.991 58.4819C119.948 57.9899 117.914 57.6731 115.891 57.5326L115.752 59.5278ZM121.523 60.4264C123.448 60.8897 125.111 61.5045 126.522 62.2617L127.467 60.4995C125.879 59.6469 124.05 58.9775 121.991 58.4819L121.523 60.4264ZM127.992 61.3039L127.715 57.7026L125.721 57.8558L125.997 61.4572L127.992 61.3039ZM126.794 58.7762L133.397 58.2689L133.244 56.2748L126.641 56.7821L126.794 58.7762ZM132.321 57.2971L132.827 77.3552L134.826 77.3048L134.32 57.2466L132.321 57.2971ZM133.75 76.3329L128.091 76.7678L128.244 78.7619L133.903 78.3271L133.75 76.3329ZM129.15 77.5825C128.541 74.2948 127.429 71.5453 125.777 69.3812L124.187 70.5949C125.604 72.4501 126.616 74.8852 127.184 77.9473L129.15 77.5825ZM125.777 69.3812C124.138 67.2354 122.101 65.6578 119.674 64.6686L118.919 66.5208C121.003 67.3701 122.757 68.7213 124.187 70.5949L125.777 69.3812ZM119.684 64.6728C117.321 63.68 114.716 63.3049 111.892 63.5219L112.045 65.516C114.594 65.3201 116.875 65.6622 118.909 66.5167L119.684 64.6728ZM111.892 63.5219C108.76 63.7626 105.98 64.7052 103.583 66.3679L104.722 68.0114C106.801 66.57 109.233 65.7322 112.045 65.516L111.892 63.5219ZM103.574 66.3741C101.273 68.0068 99.3755 70.0918 97.8825 72.6165L99.604 73.6345C100.961 71.34 102.67 69.4678 104.731 68.0052L103.574 66.3741ZM97.874 72.6312C96.4536 75.129 95.3915 77.9166 94.6814 80.9865L96.63 81.4372C97.3011 78.5358 98.2974 75.9324 99.6125 73.6198L97.874 72.6312ZM94.6775 81.004C94.0278 84.0619 93.737 87.1794 93.8043 90.3551L95.8039 90.3127C95.7398 87.2882 96.0167 84.3244 96.6339 81.4197L94.6775 81.004ZM93.8045 90.3641C93.9563 95.3852 94.7646 99.8382 96.2506 103.706L98.1176 102.989C96.7284 99.3731 95.9501 95.1501 95.8036 90.3037L93.8045 90.3641ZM96.2556 103.719C97.8068 107.598 100.029 110.645 102.947 112.806L104.137 111.199C101.567 109.296 99.551 106.573 98.1126 102.976L96.2556 103.719ZM102.966 112.82C105.979 114.942 109.559 115.82 113.644 115.506L113.491 113.512C109.801 113.796 106.698 113.002 104.118 111.185L102.966 112.82ZM113.644 115.506C114.779 115.419 116.126 115.226 117.678 114.932L117.306 112.967C115.798 113.252 114.528 113.433 113.491 113.512L113.644 115.506ZM117.678 114.932C119.246 114.634 120.779 114.251 122.276 113.782L121.678 111.874C120.256 112.319 118.799 112.684 117.306 112.967L117.678 114.932ZM122.268 113.785C123.836 113.308 125.191 112.752 126.319 112.107L125.327 110.371C124.362 110.922 123.153 111.425 121.686 111.871L122.268 113.785ZM126.823 111.216L126.639 103.208L124.639 103.254L124.823 111.262L126.823 111.216ZM126.639 103.229C126.635 101.678 126.635 100.185 126.639 98.7494L124.639 98.7431C124.635 100.183 124.635 101.68 124.639 103.234L126.639 103.229ZM126.639 98.7494C126.644 97.3182 126.675 96.2523 126.729 95.5374L124.735 95.3856C124.675 96.1745 124.644 97.2984 124.639 98.7431L126.639 98.7494ZM125.593 94.4711C124.692 94.5973 123.561 94.7414 122.197 94.9035L122.433 96.8895C123.805 96.7265 124.951 96.5806 125.87 96.4518L125.593 94.4711ZM122.238 94.8995C120.863 95.0052 119.826 95.1133 119.154 95.2268L119.487 97.1989C120.064 97.1015 121.023 96.9987 122.392 96.8936L122.238 94.8995ZM120.32 96.1881L120.156 89.5592L118.157 89.6088L118.321 96.2377L120.32 96.1881ZM119.233 90.581L141.784 88.8482L141.631 86.8541L119.08 88.5869L119.233 90.581ZM140.708 87.8824L140.886 93.5615L142.885 93.4989L142.707 87.8199L140.708 87.8824ZM141.75 92.5394C140.742 92.6768 139.836 92.8674 139.04 93.1166L139.638 95.0252C140.302 94.8171 141.094 94.6473 142.02 94.521L141.75 92.5394ZM139.023 93.1221C138.173 93.4054 137.448 93.8999 136.858 94.5873L138.377 95.889C138.737 95.4684 139.16 95.1848 139.655 95.0196L139.023 93.1221ZM136.898 94.5439C136.241 95.2248 135.837 96.1705 135.604 97.2663L137.56 97.6819C137.75 96.7902 138.036 96.2453 138.337 95.9325L136.898 94.5439ZM135.594 97.3203C135.428 98.3866 135.357 99.7757 135.371 101.466L137.37 101.45C137.358 99.8072 137.428 98.5404 137.57 97.6279L135.594 97.3203ZM135.371 101.485L135.739 115.257L137.738 115.204L137.37 101.431L135.371 101.485ZM136.662 114.233L134.518 114.398L134.672 116.392L136.815 116.227L136.662 114.233ZM134.518 114.398C132.942 114.519 131.359 114.854 129.772 115.399L130.421 117.29C131.859 116.797 133.276 116.499 134.672 116.392L134.518 114.398ZM129.798 115.39C128.311 115.856 126.749 116.414 125.111 117.063L125.848 118.923C127.446 118.289 128.962 117.748 130.395 117.299L129.798 115.39ZM125.124 117.058C123.248 117.77 121.195 118.469 118.966 119.154L119.553 121.066C121.817 120.37 123.911 119.658 125.834 118.928L125.124 117.058ZM118.966 119.154C116.803 119.818 114.325 120.262 111.525 120.477L111.678 122.472C114.594 122.247 117.222 121.782 119.553 121.066L118.966 119.154ZM170.664 55.0061L170.576 54.01L170.574 54.0102L170.664 55.0061ZM183.764 55.9834L183.48 56.9424L183.485 56.9438L183.764 55.9834ZM192.483 61.6961L191.685 62.2982L191.693 62.3093L192.483 61.6961ZM195.569 72.672L194.569 72.6614L194.569 72.6738L195.569 72.672ZM194.117 79.5975L193.195 79.2107L193.191 79.2202L194.117 79.5975ZM189.777 85.9688L190.485 86.6744L190.487 86.6728L189.777 85.9688ZM182.396 90.9349L181.977 90.0265L181.972 90.0291L182.396 90.9349ZM171.908 93.6384L171.803 92.6439L171.795 92.6448L171.786 92.6458L171.908 93.6384ZM165.734 94.1128L165.716 93.1129L164.714 93.1309L164.734 94.1327L165.734 94.1128ZM165.885 101.691L164.885 101.711L164.886 101.722L164.886 101.732L165.885 101.691ZM165.891 106.262L164.892 106.22L164.891 106.239L164.891 106.259L165.891 106.262ZM165.799 109.547L164.802 109.471L164.705 110.746L165.965 110.533L165.799 109.547ZM168.193 109.277L168.27 110.274L168.299 110.272L168.328 110.268L168.193 109.277ZM171.016 108.974L171.093 109.971L171.124 109.968L171.155 109.964L171.016 108.974ZM172.982 108.736L173.981 108.699L173.942 107.66L172.905 107.739L172.982 108.736ZM173.232 115.359L173.308 116.356L174.267 116.282L174.231 115.321L173.232 115.359ZM147.936 117.302L146.937 117.319L146.954 118.381L148.013 118.3L147.936 117.302ZM147.845 111.617L147.723 110.624L146.83 110.734L146.845 111.633L147.845 111.617ZM151.063 110.852L151.434 111.781L151.434 111.781L151.063 110.852ZM153.056 108.715L152.147 108.298L152.138 108.318L152.129 108.338L153.056 108.715ZM153.702 103.663L152.703 103.687L152.703 103.689L153.702 103.663ZM152.894 70.6897L151.894 70.6924L151.894 70.7033L151.894 70.7142L152.894 70.6897ZM152.894 66.2045L151.895 66.1617L151.894 66.1815L151.894 66.2013L152.894 66.2045ZM153.073 62.9131L154.07 62.989L154.164 61.7506L152.934 61.9228L153.073 62.9131ZM149.656 63.3482L149.732 64.3452L149.753 64.3436L149.774 64.3412L149.656 63.3482ZM146.661 63.6645L145.662 63.6893L145.69 64.8427L146.828 64.6505L146.661 63.6645ZM146.497 57.0356L146.406 56.0397L145.474 56.1246L145.497 57.0604L146.497 57.0356ZM167.557 61.7139L167.187 60.785L167.178 60.7885L167.169 60.7922L167.557 61.7139ZM165.044 68.2898L164.044 68.3094L164.044 68.3176L165.044 68.2898ZM165.583 87.6554L164.583 87.6832L164.61 88.6419L165.569 88.6553L165.583 87.6554ZM167.482 87.6819L167.469 88.6818L167.469 88.6818L167.482 87.6819ZM177.06 85.4797L177.584 86.3314L177.593 86.3257L177.06 85.4797ZM181.334 80.4935L182.256 80.8814L182.261 80.8709L181.334 80.4935ZM182.562 72.8951L183.562 72.8772L183.562 72.8678L183.561 72.8584L182.562 72.8951ZM181.177 66.1013L180.28 66.5427L180.28 66.5427L181.177 66.1013ZM178.058 62.5458L177.521 63.3894L177.544 63.4043L177.568 63.4179L178.058 62.5458ZM174.245 61.1999L174.099 62.1892L174.125 62.1929L174.15 62.1954L174.245 61.1999ZM170.752 56.0022C175.69 55.5663 179.925 55.8917 183.48 56.9424L184.047 55.0243C180.189 53.8845 175.691 53.5584 170.576 54.01L170.752 56.0022ZM183.485 56.9438C187.075 57.984 189.785 59.7784 191.685 62.2981L193.282 61.0941C191.083 58.1785 187.981 56.1644 184.042 55.0229L183.485 56.9438ZM191.693 62.3093C193.62 64.7919 194.616 68.2064 194.569 72.6614L196.569 72.6825C196.619 67.9296 195.558 64.0269 193.273 61.083L191.693 62.3093ZM194.569 72.6738C194.573 74.8282 194.12 77.005 193.195 79.2107L195.04 79.9843C196.058 77.5555 196.574 75.1152 196.569 72.6701L194.569 72.6738ZM193.191 79.2202C192.329 81.3368 190.962 83.3525 189.067 85.2648L190.487 86.6728C192.54 84.6015 194.068 82.3697 195.043 79.9749L193.191 79.2202ZM189.068 85.2633C187.246 87.0934 184.891 88.6856 181.977 90.0265L182.814 91.8433C185.899 90.4233 188.464 88.7047 190.485 86.6744L189.068 85.2633ZM181.972 90.0291C179.153 91.3479 175.769 92.2265 171.803 92.6439L172.013 94.6329C176.146 94.1979 179.755 93.2741 182.819 91.8407L181.972 90.0291ZM171.786 92.6458C170.544 92.7983 169.447 92.9108 168.494 92.984L168.647 94.9781C169.637 94.902 170.766 94.7861 172.03 94.6309L171.786 92.6458ZM168.494 92.984C167.6 93.0527 166.674 93.0957 165.716 93.1129L165.752 95.1126C166.747 95.0948 167.712 95.05 168.647 94.9781L168.494 92.984ZM164.734 94.1327L164.885 101.711L166.885 101.672L166.734 94.0928L164.734 94.1327ZM164.886 101.732C164.951 103.313 164.953 104.808 164.892 106.22L166.89 106.305C166.953 104.832 166.951 103.28 166.884 101.65L164.886 101.732ZM164.891 106.259C164.887 107.69 164.856 108.756 164.802 109.471L166.796 109.623C166.856 108.834 166.887 107.71 166.891 106.266L164.891 106.259ZM165.965 110.533C166.549 110.435 167.314 110.347 168.27 110.274L168.116 108.28C167.129 108.356 166.298 108.449 165.632 108.561L165.965 110.533ZM168.328 110.268C169.277 110.138 170.199 110.04 171.093 109.971L170.94 107.977C170.004 108.049 169.044 108.152 168.058 108.286L168.328 110.268ZM171.155 109.964C172.064 109.837 172.692 109.762 173.058 109.734L172.905 107.739C172.471 107.773 171.789 107.856 170.877 107.983L171.155 109.964ZM171.982 108.774L172.233 115.397L174.231 115.321L173.981 108.699L171.982 108.774ZM173.155 114.362L147.86 116.305L148.013 118.3L173.308 116.356L173.155 114.362ZM148.936 117.286L148.844 111.601L146.845 111.633L146.937 117.319L148.936 117.286ZM147.966 112.609C149.28 112.448 150.441 112.177 151.434 111.781L150.693 109.923C149.9 110.239 148.916 110.478 147.723 110.624L147.966 112.609ZM151.434 111.781C152.629 111.304 153.466 110.358 153.982 109.092L152.129 108.338C151.774 109.209 151.283 109.688 150.693 109.923L151.434 111.781ZM153.964 109.132C154.556 107.843 154.764 105.966 154.702 103.636L152.703 103.689C152.763 105.95 152.54 107.442 152.147 108.298L153.964 109.132ZM154.702 103.638L153.893 70.6652L151.894 70.7142L152.703 103.687L154.702 103.638ZM153.894 70.6869C153.89 69.1365 153.89 67.6434 153.894 66.2076L151.894 66.2013C151.89 67.6413 151.89 69.1384 151.894 70.6924L153.894 70.6869ZM153.893 66.2472C153.955 64.8079 154.014 63.724 154.07 62.989L152.075 62.8372C152.017 63.606 151.957 64.7164 151.895 66.1617L153.893 66.2472ZM152.934 61.9228C152.033 62.0489 150.901 62.193 149.538 62.3552L149.774 64.3412C151.145 64.1781 152.292 64.0322 153.211 63.9035L152.934 61.9228ZM149.579 62.3511C148.204 62.4568 147.167 62.5649 146.495 62.6785L146.828 64.6505C147.404 64.5531 148.364 64.4504 149.732 64.3452L149.579 62.3511ZM147.661 63.6397L147.497 57.0108L145.497 57.0604L145.662 63.6893L147.661 63.6397ZM146.588 58.0315C150.637 57.6629 154.66 57.325 158.657 57.0179L158.504 55.0238C154.498 55.3316 150.465 55.6703 146.406 56.0397L146.588 58.0315ZM158.657 57.0179C162.721 56.7057 166.753 56.367 170.755 56.002L170.574 54.0102C166.581 54.3744 162.558 54.7123 158.504 55.0238L158.657 57.0179ZM170.62 60.0443C169.343 60.1424 168.194 60.3834 167.187 60.785L167.928 62.6427C168.706 62.3321 169.65 62.1248 170.774 62.0384L170.62 60.0443ZM167.169 60.7922C166.047 61.2644 165.246 62.1665 164.727 63.3596L166.561 64.1572C166.922 63.3277 167.396 62.8667 167.945 62.6355L167.169 60.7922ZM164.727 63.3596C164.2 64.5707 164.004 66.2552 164.044 68.3094L166.043 68.2702C166.005 66.3052 166.208 64.9688 166.561 64.1572L164.727 63.3596ZM164.044 68.3176L164.583 87.6832L166.582 87.6275L166.043 68.2619L164.044 68.3176ZM165.569 88.6553C166.202 88.6641 166.835 88.673 167.469 88.6818L167.496 86.682C166.863 86.6732 166.23 86.6643 165.597 86.6555L165.569 88.6553ZM167.469 88.6818C168.134 88.6911 168.824 88.668 169.538 88.6132L169.385 86.6191C168.726 86.6696 168.097 86.6904 167.496 86.682L167.469 88.6818ZM169.538 88.6132C172.781 88.364 175.484 87.6238 177.584 86.3313L176.536 84.628C174.793 85.7009 172.43 86.3851 169.385 86.6191L169.538 88.6132ZM177.593 86.3257C179.735 84.9761 181.299 83.1569 182.256 80.8814L180.413 80.1057C179.62 81.9898 178.334 83.4947 176.527 84.6336L177.593 86.3257ZM182.261 80.8709C183.194 78.5796 183.616 75.9061 183.562 72.8772L181.562 72.9131C181.613 75.7414 181.216 78.1334 180.408 80.1161L182.261 80.8709ZM183.561 72.8584C183.453 69.9201 182.979 67.4984 182.075 65.6598L180.28 66.5427C181.011 68.0286 181.46 70.1362 181.563 72.9318L183.561 72.8584ZM182.075 65.6598C181.193 63.8668 180.029 62.5052 178.547 61.6737L177.568 63.4179C178.61 64.0025 179.527 65.0113 180.28 66.5427L182.075 65.6598ZM178.595 61.7022C177.262 60.854 175.841 60.3482 174.341 60.2045L174.15 62.1954C175.314 62.3069 176.435 62.6984 177.521 63.3894L178.595 61.7022ZM174.392 60.2107C173.052 60.0126 171.793 59.9542 170.62 60.0443L170.774 62.0384C171.773 61.9616 172.88 62.0089 174.099 62.1892L174.392 60.2107Z" fill="black"/>
</g>
<defs>
<clipPath id="clip0_1381_5725">
<rect width="255" height="257" fill="white"/>
</clipPath>
</defs>
</svg>
